<svg id="Layer_1" data-name="Layer 1" xmlns="http://www.w3.org/2000/svg" viewBox="0 0 214.23 243.46"><defs><style>.cls-1{fill:#003c65;}</style></defs><path class="cls-1" d="M188.7,192.21H105.8V140.76a5,5,0,0,0-5-5H44.35a5,5,0,0,0-5,5v51.45H25.62a25.63,25.63,0,0,0,0,51.25H139.09a5,5,0,0,0,0-10H45.91a25.53,25.53,0,0,0,0-31.25h122.4a25.61,25.61,0,1,0,20.39-10ZM10,217.83a15.63,15.63,0,1,1,15.62,15.63A15.64,15.64,0,0,1,10,217.83Zm39.35-25.62V145.76H95.8v46.45ZM188.6,233.46a15.63,15.63,0,1,1,15.63-15.63A15.64,15.64,0,0,1,188.6,233.46Z"/><path class="cls-1" d="M207.7,57.29,159.45,9a4.86,4.86,0,0,0-.66-.54A22.39,22.39,0,0,0,141.24,0H72.42A22.4,22.4,0,0,0,50.05,22.37V52L35.25,67.88a5,5,0,0,0-1.34,3.41V93A5,5,0,0,0,36,97.08L50.68,107.4a5,5,0,0,0,7.88-4.09V84.21l7.56-7.55,12.95.61L86,84.21v19.1a5,5,0,0,0,7.88,4.09l14.65-10.32A5,5,0,0,0,110.67,93V71.29a5,5,0,0,0-1.41-3.48l-14.47-15v-8h37.45l37.87,37.87V166a5,5,0,1,0,10,0V91.89a22.27,22.27,0,0,0,24.12-.26V174.5a5,5,0,0,0,10,0V73A22.13,22.13,0,0,0,207.7,57.29Zm-31.49,0a22.17,22.17,0,0,0-6.07,11.28L145.89,44.33a22.46,22.46,0,0,0,17.3-17.41l24.3,24.3A22.09,22.09,0,0,0,176.21,57.29ZM153.65,22.41A12.41,12.41,0,1,1,141.24,10,12.43,12.43,0,0,1,153.65,22.41Zm-93.6,0a12.37,12.37,0,0,1,24.74,0V49.93H60.05Zm40.62,68L96,93.68V82.14a5,5,0,0,0-1.46-3.54l-9.77-9.77a5.05,5.05,0,0,0-3.3-1.45l-17.1-.82A5.07,5.07,0,0,0,60.61,68L50,78.6a5,5,0,0,0-1.47,3.54V93.68L43.91,90.4V73.26L56.34,59.93h31.4l12.93,13.38ZM91.05,10h31.54a22.36,22.36,0,0,0,0,24.82H94.79V22.37A22.27,22.27,0,0,0,91.05,10ZM200.63,81.72a12.26,12.26,0,0,1-20.52-5.49V73a5,5,0,0,0-.3-1.66,12.27,12.27,0,1,1,20.82,10.34Z"/></svg>